<mxfile host="app.diagrams.net" agent="Mozilla/5.0 (X11; Linux x86_64) AppleWebKit/537.36 (KHTML, like Gecko) Chrome/140.0.0.0 Safari/537.36" version="28.2.7">
  <diagram name="Страница — 1" id="WKN6_aHiLJ9qFVDw1uDE">
    <mxGraphModel dx="1426" dy="785" grid="1" gridSize="10" guides="1" tooltips="1" connect="1" arrows="1" fold="1" page="1" pageScale="1" pageWidth="827" pageHeight="1169" math="0" shadow="0">
      <root>
        <mxCell id="0" />
        <mxCell id="1" parent="0" />
        <mxCell id="iEVl-Ih44DvoOuaY-pbR-16" value="Room/number" style="swimlane;childLayout=stackLayout;horizontal=1;startSize=50;horizontalStack=0;rounded=1;fontSize=14;fontStyle=0;strokeWidth=2;resizeParent=0;resizeLast=1;shadow=0;dashed=0;align=center;arcSize=4;whiteSpace=wrap;html=1;" parent="1" vertex="1">
          <mxGeometry x="500" y="545" width="160" height="145" as="geometry" />
        </mxCell>
        <mxCell id="iEVl-Ih44DvoOuaY-pbR-17" value="Room_ID PK&lt;br&gt;Accommodations_ID FK&lt;br&gt;&lt;div&gt;Price&lt;/div&gt;&lt;div&gt;Bed spaces&lt;br&gt;Status&lt;/div&gt;" style="align=left;strokeColor=none;fillColor=none;spacingLeft=4;spacingRight=4;fontSize=12;verticalAlign=top;resizable=0;rotatable=0;part=1;html=1;whiteSpace=wrap;" parent="iEVl-Ih44DvoOuaY-pbR-16" vertex="1">
          <mxGeometry y="50" width="160" height="95" as="geometry" />
        </mxCell>
        <mxCell id="iEVl-Ih44DvoOuaY-pbR-20" value="Accommodations" style="swimlane;childLayout=stackLayout;horizontal=1;startSize=50;horizontalStack=0;rounded=1;fontSize=14;fontStyle=0;strokeWidth=2;resizeParent=0;resizeLast=1;shadow=0;dashed=0;align=center;arcSize=4;whiteSpace=wrap;html=1;" parent="1" vertex="1">
          <mxGeometry x="300" y="330" width="160" height="150" as="geometry" />
        </mxCell>
        <mxCell id="iEVl-Ih44DvoOuaY-pbR-21" value="Accommodations_ID PK&lt;br&gt;User_ID FK&lt;br&gt;Room_ID FK&lt;div&gt;Reservation_ID FK&lt;/div&gt;" style="align=left;strokeColor=none;fillColor=none;spacingLeft=4;spacingRight=4;fontSize=12;verticalAlign=top;resizable=0;rotatable=0;part=1;html=1;whiteSpace=wrap;" parent="iEVl-Ih44DvoOuaY-pbR-20" vertex="1">
          <mxGeometry y="50" width="160" height="100" as="geometry" />
        </mxCell>
        <mxCell id="iEVl-Ih44DvoOuaY-pbR-22" value="User" style="swimlane;childLayout=stackLayout;horizontal=1;startSize=50;horizontalStack=0;rounded=1;fontSize=14;fontStyle=0;strokeWidth=2;resizeParent=0;resizeLast=1;shadow=0;dashed=0;align=center;arcSize=4;whiteSpace=wrap;html=1;" parent="1" vertex="1">
          <mxGeometry x="100" y="180" width="160" height="120" as="geometry" />
        </mxCell>
        <mxCell id="iEVl-Ih44DvoOuaY-pbR-23" value="User_ID PK&lt;div&gt;Name&lt;br&gt;Email&lt;/div&gt;&lt;div&gt;Contact number&lt;/div&gt;" style="align=left;strokeColor=none;fillColor=none;spacingLeft=4;spacingRight=4;fontSize=12;verticalAlign=top;resizable=0;rotatable=0;part=1;html=1;whiteSpace=wrap;" parent="iEVl-Ih44DvoOuaY-pbR-22" vertex="1">
          <mxGeometry y="50" width="160" height="70" as="geometry" />
        </mxCell>
        <mxCell id="iEVl-Ih44DvoOuaY-pbR-24" value="Review" style="swimlane;childLayout=stackLayout;horizontal=1;startSize=50;horizontalStack=0;rounded=1;fontSize=14;fontStyle=0;strokeWidth=2;resizeParent=0;resizeLast=1;shadow=0;dashed=0;align=center;arcSize=4;whiteSpace=wrap;html=1;" parent="1" vertex="1">
          <mxGeometry x="480" y="100" width="160" height="160" as="geometry" />
        </mxCell>
        <mxCell id="iEVl-Ih44DvoOuaY-pbR-25" value="Review_ID PK&lt;br&gt;User_ID FK&lt;div&gt;Accommodations_ID FK&lt;br&gt;Rating&amp;nbsp;&lt;br&gt;Comment&lt;br&gt;Date&lt;/div&gt;&lt;div&gt;Room_ID FK&lt;/div&gt;" style="align=left;strokeColor=none;fillColor=none;spacingLeft=4;spacingRight=4;fontSize=12;verticalAlign=top;resizable=0;rotatable=0;part=1;html=1;whiteSpace=wrap;" parent="iEVl-Ih44DvoOuaY-pbR-24" vertex="1">
          <mxGeometry y="50" width="160" height="110" as="geometry" />
        </mxCell>
        <mxCell id="iEVl-Ih44DvoOuaY-pbR-26" value="Reservation" style="swimlane;childLayout=stackLayout;horizontal=1;startSize=50;horizontalStack=0;rounded=1;fontSize=14;fontStyle=0;strokeWidth=2;resizeParent=0;resizeLast=1;shadow=0;dashed=0;align=center;arcSize=4;whiteSpace=wrap;html=1;" parent="1" vertex="1">
          <mxGeometry x="100" y="530" width="160" height="160" as="geometry" />
        </mxCell>
        <mxCell id="iEVl-Ih44DvoOuaY-pbR-27" value="Reservation_ID PK&lt;div&gt;User_ID FK&lt;div&gt;Accommodations_ID FK&lt;/div&gt;&lt;div&gt;Room_ID FK&lt;br&gt;Payment Status&lt;/div&gt;&lt;div&gt;Start date&lt;br&gt;End date&lt;/div&gt;&lt;div&gt;&lt;br&gt;&lt;/div&gt;&lt;/div&gt;" style="align=left;strokeColor=none;fillColor=none;spacingLeft=4;spacingRight=4;fontSize=12;verticalAlign=top;resizable=0;rotatable=0;part=1;html=1;whiteSpace=wrap;" parent="iEVl-Ih44DvoOuaY-pbR-26" vertex="1">
          <mxGeometry y="50" width="160" height="110" as="geometry" />
        </mxCell>
        <mxCell id="S5Mm4gbxJ1xamlytZk4e-1" value="" style="edgeStyle=entityRelationEdgeStyle;fontSize=12;html=1;endArrow=ERoneToMany;startArrow=ERmandOne;rounded=0;exitX=1;exitY=0.5;exitDx=0;exitDy=0;entryX=0;entryY=0;entryDx=0;entryDy=0;" parent="1" source="iEVl-Ih44DvoOuaY-pbR-21" edge="1" target="iEVl-Ih44DvoOuaY-pbR-17">
          <mxGeometry width="100" height="100" relative="1" as="geometry">
            <mxPoint x="360" y="460" as="sourcePoint" />
            <mxPoint x="490" y="550" as="targetPoint" />
          </mxGeometry>
        </mxCell>
        <mxCell id="S5Mm4gbxJ1xamlytZk4e-2" value="" style="edgeStyle=entityRelationEdgeStyle;fontSize=12;html=1;endArrow=ERoneToMany;startArrow=ERzeroToOne;rounded=0;exitX=1.019;exitY=0.436;exitDx=0;exitDy=0;exitPerimeter=0;" parent="1" source="iEVl-Ih44DvoOuaY-pbR-27" target="iEVl-Ih44DvoOuaY-pbR-17" edge="1">
          <mxGeometry width="100" height="100" relative="1" as="geometry">
            <mxPoint x="360" y="460" as="sourcePoint" />
            <mxPoint x="460" y="360" as="targetPoint" />
          </mxGeometry>
        </mxCell>
        <mxCell id="S5Mm4gbxJ1xamlytZk4e-3" value="" style="edgeStyle=orthogonalEdgeStyle;fontSize=12;html=1;endArrow=ERzeroToMany;startArrow=ERmandOne;rounded=0;entryX=-0.025;entryY=0.4;entryDx=0;entryDy=0;exitX=0;exitY=0.25;exitDx=0;exitDy=0;entryPerimeter=0;" parent="1" source="iEVl-Ih44DvoOuaY-pbR-23" target="iEVl-Ih44DvoOuaY-pbR-27" edge="1">
          <mxGeometry width="100" height="100" relative="1" as="geometry">
            <mxPoint x="20" y="190" as="sourcePoint" />
            <mxPoint x="50" y="635" as="targetPoint" />
            <Array as="points">
              <mxPoint x="70" y="248" />
              <mxPoint x="70" y="624" />
            </Array>
          </mxGeometry>
        </mxCell>
        <mxCell id="S5Mm4gbxJ1xamlytZk4e-4" value="" style="edgeStyle=entityRelationEdgeStyle;fontSize=12;html=1;endArrow=ERzeroToOne;startArrow=ERmandOne;rounded=0;exitX=1;exitY=0.25;exitDx=0;exitDy=0;entryX=0;entryY=0.5;entryDx=0;entryDy=0;" parent="1" source="iEVl-Ih44DvoOuaY-pbR-21" target="iEVl-Ih44DvoOuaY-pbR-25" edge="1">
          <mxGeometry width="100" height="100" relative="1" as="geometry">
            <mxPoint x="360" y="460" as="sourcePoint" />
            <mxPoint x="460" y="360" as="targetPoint" />
          </mxGeometry>
        </mxCell>
        <mxCell id="6mBcJoQtj_8gOMgIsjSb-1" value="" style="edgeStyle=entityRelationEdgeStyle;fontSize=12;html=1;endArrow=ERzeroToMany;startArrow=ERmandOne;rounded=0;exitX=1;exitY=0.5;exitDx=0;exitDy=0;entryX=0;entryY=0.25;entryDx=0;entryDy=0;" edge="1" parent="1" source="iEVl-Ih44DvoOuaY-pbR-23" target="iEVl-Ih44DvoOuaY-pbR-25">
          <mxGeometry width="100" height="100" relative="1" as="geometry">
            <mxPoint x="310" y="260" as="sourcePoint" />
            <mxPoint x="410" y="220" as="targetPoint" />
          </mxGeometry>
        </mxCell>
      </root>
    </mxGraphModel>
  </diagram>
</mxfile>
